<?xml version="1.0" encoding="iso-8859-1"?>
<!-- Generator: Adobe Illustrator 19.0.0, SVG Export Plug-In . SVG Version: 6.00 Build 0)  -->
<svg version="1.1" id="Capa_1" xmlns="http://www.w3.org/2000/svg" xmlns:xlink="http://www.w3.org/1999/xlink" x="0px" y="0px"
	 viewBox="0 0 512 512" style="enable-background:new 0 0 512 512;" xml:space="preserve">
<g>
	<g>
		<g>
			<path d="M447.345,363.376c-1.452-1.453-3.171-2.509-4.729-3.814c3.219-8.178,5.416-16.747,5.416-25.563
				c0-18.751-7.314-36.367-20.545-49.607l-69.999-70.283c16.568-17.982,26.533-40.398,26.533-64.767
				c0-2.422-0.245-4.793-0.436-7.176c26.046-12.162,43.11-38.187,43.11-67.495C426.696,33.502,393.19,0,352.016,0
				c-30.055,0-56.844,18.209-68.466,45.223c-8.886-1.632-18.085-2.554-27.55-2.554c-9.46,0-18.656,0.919-27.536,2.55
				C216.824,18.207,190.019,0,159.984,0C118.81,0,85.304,33.502,85.304,74.671c0,29.293,17.064,55.324,43.11,67.486
				c-0.193,2.386-0.436,4.759-0.436,7.185c0,24.498,10.065,47.025,26.792,65.055l-70.237,69.985
				C71.281,297.633,63.967,315.248,63.967,334c0,8.813,2.193,17.384,5.416,25.563c-1.558,1.303-3.277,2.361-4.729,3.814
				c-29.318,29.304-29.318,77.005,0,106.309c14.336,14.324,39.778,28.606,64.824,36.356c12.856,3.99,24.65,5.959,35.068,5.959
				c15.294,0,27.651-4.25,36.069-12.678c4.395-4.393,7.379-9.809,9.399-15.817c14.736,4.666,30.397,7.192,45.986,7.192
				c15.578,0,31.231-2.529,45.987-7.188c2.02,6.007,5.003,11.421,9.397,15.813C319.803,507.75,332.159,512,347.453,512
				c10.418,0,22.212-1.969,35.068-5.959c25.046-7.75,50.488-22.033,64.824-36.356C476.663,440.381,476.663,392.68,447.345,363.376z
				 M352,21.333c29.417,0,53.333,23.927,53.333,53.333c0,19.163-10.246,36.336-26.23,45.789c-2.294-6.781-5.359-13.279-9.138-19.443
				C378.419,95.214,384,85.547,384,74.667c0-17.646-14.354-32-32-32c-11.948,0-22.264,6.664-27.759,16.582
				c-6.259-3.303-12.839-6.212-19.766-8.585C313.409,33.03,331.655,21.333,352,21.333z M362.667,74.667
				c0,4.038-2.314,7.551-5.682,9.361c-4.486-4.805-9.453-9.258-14.841-13.358C343.733,66.767,347.54,64,352,64
				C357.875,64,362.667,68.781,362.667,74.667z M132.897,120.452c-15.986-9.452-26.23-26.626-26.23-45.785
				c0-29.406,23.917-53.333,53.333-53.333c20.34,0,38.581,11.691,47.531,29.329c-6.9,2.362-13.453,5.256-19.689,8.543
				C182.37,49.396,172.01,42.667,160,42.667c-17.646,0-32,14.354-32,32c0,10.88,5.581,20.547,14.035,26.346
				C138.257,107.176,135.191,113.673,132.897,120.452z M169.79,70.719c-5.362,4.086-10.307,8.523-14.775,13.309
				c-3.368-1.81-5.682-5.323-5.682-9.361C149.333,68.781,154.125,64,160,64C164.383,64,168.152,66.668,169.79,70.719z
				 M149.333,149.333C149.333,102.281,197.188,64,256,64s106.667,38.281,106.667,85.333c0,47.052-47.854,85.333-106.667,85.333
				S149.333,196.385,149.333,149.333z M185.542,484.208c-8.063,8.052-26.667,8.573-49.729,1.427
				c-21.313-6.604-44.354-19.375-56.042-31.063c-7.728-7.728-12.779-17.401-14.777-27.906h9.673c5.896,0,10.667-4.771,10.667-10.667
				c0-5.896-4.771-10.667-10.667-10.667h-9.453c1.4-6.647,3.995-12.952,7.764-18.605l4.814,4.814
				c2.083,2.083,4.813,3.125,7.542,3.125c2.729,0,5.458-1.042,7.542-3.125c4.167-4.167,4.167-10.917,0-15.083l-4.815-4.815
				c5.656-3.771,11.961-6.367,18.607-7.766v9.456c0,5.896,4.771,10.667,10.667,10.667c5.896,0,10.667-4.771,10.667-10.667v-9.673
				c10.5,2,20.171,7.052,27.896,14.777C179.583,402.115,204.042,465.708,185.542,484.208z M298.961,461.583
				c-27.372,9.501-58.608,9.491-85.922,0.003c-0.719-34.9-22.251-78.415-42.06-98.232c-4.534-4.538-9.737-8.083-15.18-11.171
				c6.556-17.138,17.727-33.512,32.596-46.694c4.417-3.906,4.833-10.656,0.917-15.063c-3.917-4.417-10.688-4.813-15.042-0.917
				c-17.385,15.393-30.492,34.639-38.284,54.91c-16.02-3.775-33.096-2.592-48.3,3.772c-1.409-4.619-2.354-9.367-2.354-14.214
				c0-13.042,5.083-25.313,14.292-34.521l71.066-70.828C193.362,245.585,223.211,256,256,256c32.93,0,62.896-10.505,85.602-27.591
				l70.753,71.039c9.229,9.219,14.313,21.49,14.313,34.531c0,4.845-0.944,9.594-2.357,14.212
				c-15.195-6.362-32.264-7.546-48.276-3.777c-7.805-20.262-20.911-39.504-38.284-54.893c-4.438-3.906-11.167-3.51-15.063,0.906
				c-3.917,4.406-3.5,11.146,0.896,15.052c14.888,13.191,26.076,29.565,32.637,46.695c-5.449,3.089-10.66,6.637-15.199,11.18
				C321.212,383.171,299.68,426.682,298.961,461.583z M432.229,454.573c-11.688,11.688-34.729,24.458-56.042,31.063
				c-23.083,7.135-41.688,6.625-49.729-1.427c-18.5-18.5,5.958-82.094,29.646-105.771c7.725-7.725,17.396-12.777,27.896-14.777
				v9.673c0,5.896,4.771,10.667,10.667,10.667s10.667-4.771,10.667-10.667v-9.456c6.646,1.398,12.951,3.995,18.607,7.766
				l-4.815,4.815c-4.167,4.167-4.167,10.917,0,15.083c2.083,2.083,4.813,3.125,7.542,3.125s5.458-1.042,7.542-3.125l4.815-4.815
				c3.77,5.655,6.365,11.96,7.764,18.607h-9.454c-5.896,0-10.667,4.771-10.667,10.667c0,5.896,4.771,10.667,10.667,10.667h9.674
				C445.009,437.172,439.957,446.845,432.229,454.573z"/>
			<circle cx="224" cy="117.333" r="10.667"/>
			<circle cx="288" cy="117.333" r="10.667"/>
			<path d="M233.375,213.333c8.757,0,16.674-3.466,22.625-9.013c5.951,5.547,13.868,9.013,22.625,9.013
				c8.75,0,17.333-3.552,23.521-9.74c4.167-4.167,4.167-10.917,0-15.083c-4.167-4.167-10.917-4.167-15.083,0
				c-2.229,2.219-5.292,3.49-8.438,3.49c-5.642,0-10.152-3.996-11.41-9.241l8.993-17.988c1.646-3.302,1.479-7.229-0.458-10.375
				c-1.958-3.146-5.396-5.063-9.083-5.063h-21.333c-3.688,0-7.125,1.917-9.083,5.063c-1.938,3.146-2.104,7.073-0.458,10.375
				l9.057,18.116c-2.288,7.891-13.707,11.819-19.911,5.624c-4.167-4.167-10.917-4.167-15.083,0c-4.167,4.167-4.167,10.917,0,15.083
				C216.042,209.781,224.625,213.333,233.375,213.333z"/>
		</g>
	</g>
</g>
<g>
</g>
<g>
</g>
<g>
</g>
<g>
</g>
<g>
</g>
<g>
</g>
<g>
</g>
<g>
</g>
<g>
</g>
<g>
</g>
<g>
</g>
<g>
</g>
<g>
</g>
<g>
</g>
<g>
</g>
</svg>
